<svg width="135" height="135" viewBox="0 0 135 135" fill="none" xmlns="http://www.w3.org/2000/svg">
<path d="M131.925 60.5777L131.925 60.5774C130.621 59.0513 129.731 57.2163 129.339 55.2481C128.948 53.2798 129.068 51.244 129.688 49.3353L129.689 49.3336C130.49 46.895 130.392 44.25 129.412 41.8776C128.431 39.5051 126.634 37.562 124.344 36.4002L124.571 35.9543L124.344 36.4002C122.554 35.4914 121.027 34.1371 119.912 32.4675C118.797 30.7982 118.13 28.8699 117.976 26.8683C117.777 24.3254 116.679 21.9365 114.878 20.1298C113.077 18.3233 110.692 17.2171 108.15 17.0095C106.148 16.8554 104.22 16.1889 102.55 15.0739C100.881 13.9588 99.5261 12.4326 98.6172 10.6424M131.925 60.5777L99.063 10.416M131.925 60.5777C133.587 62.5196 134.5 64.9911 134.5 67.5468C134.5 70.1024 133.587 72.574 131.925 74.5158L131.925 74.5162C130.621 76.0423 129.731 77.8773 129.339 79.8455C128.948 81.8138 129.068 83.8496 129.688 85.7583C130.478 88.1898 130.376 90.8233 129.398 93.1858C128.421 95.5482 126.632 97.4847 124.355 98.6471M131.925 60.5777L124.355 98.6471M98.6172 10.6424L99.063 10.416M98.6172 10.6424C98.6174 10.6427 98.6175 10.643 98.6177 10.6434L99.063 10.416M98.6172 10.6424C97.4545 8.36573 95.518 6.57821 93.1554 5.60099C90.7926 4.62362 88.1585 4.52087 85.7266 5.31121L85.7265 5.31124C83.8176 5.93123 81.7815 6.05121 79.8129 5.6597C77.8443 5.26819 76.0091 4.37829 74.4828 3.07508L74.4824 3.07476C72.5402 1.41315 70.0682 0.5 67.512 0.5C64.9559 0.5 62.4838 1.41315 60.5417 3.07476L60.5413 3.07508C59.0149 4.37829 57.1797 5.26819 55.2112 5.6597C53.2426 6.05121 51.2065 5.93123 49.2975 5.31124L49.2974 5.31121C46.8656 4.52087 44.2315 4.62362 41.8686 5.60099C39.5058 6.57834 37.569 8.36619 36.4064 10.6432M99.063 10.416C97.8463 8.0329 95.8194 6.1618 93.3466 5.13895C90.8737 4.1161 88.1171 4.00858 85.5721 4.8357C83.7445 5.42927 81.7951 5.54413 79.9104 5.1693C78.0257 4.79448 76.2687 3.9425 74.8074 2.69483C72.7747 0.955727 70.1874 0 67.512 0C64.8367 0 62.2494 0.955727 60.2166 2.69483C58.7553 3.9425 56.9983 4.79448 55.1136 5.1693C53.229 5.54413 51.2796 5.42927 49.452 4.8357C46.907 4.00858 44.1503 4.1161 41.6775 5.13895C39.2047 6.1618 37.1778 8.0329 35.9611 10.416M36.4064 10.6432C36.4066 10.6429 36.4067 10.6427 36.4069 10.6424L35.9611 10.416M36.4064 10.6432C36.4064 10.6433 36.4064 10.6433 36.4064 10.6434L35.9611 10.416M36.4064 10.6432C35.4975 12.4331 34.1431 13.959 32.4736 15.0739C30.804 16.189 28.8754 16.8555 26.8736 17.0095M35.9611 10.416C35.091 12.1297 33.7943 13.5906 32.1959 14.6581C30.5975 15.7256 28.7511 16.3637 26.8345 16.511M26.8345 16.511C24.1671 16.7202 21.662 17.8745 19.7701 19.7661C17.8781 21.6577 16.7237 24.1624 16.5145 26.8293C16.3638 28.7446 15.7243 30.5893 14.657 32.1869C13.5897 33.7845 12.1303 35.0817 10.4184 35.9543M26.8345 16.511L26.8728 17.0096C26.8731 17.0095 26.8733 17.0095 26.8736 17.0095M26.8345 16.511L26.8736 17.0095M26.8736 17.0095C24.3249 17.2094 21.9313 18.3123 20.1236 20.1197C18.3159 21.9271 17.2128 24.3202 17.0129 26.8684L17.0129 26.8685C16.8556 28.8691 16.1876 30.7959 15.0727 32.4647C13.958 34.1334 12.4337 35.4882 10.6457 36.3997M10.6457 36.3997L10.4184 35.9543M10.6457 36.3997C10.6456 36.3997 10.6456 36.3998 10.6455 36.3998L10.4184 35.9543M10.6457 36.3997C8.3682 37.5621 6.58001 39.4986 5.6025 41.861C4.62498 44.2234 4.52223 46.857 5.31269 49.2884L5.31295 49.2892C5.93022 51.199 6.04758 53.235 5.65391 55.203C5.26028 57.1709 4.36881 59.005 3.0646 60.5303M10.4184 35.9543C8.03492 37.1709 6.1635 39.1974 5.14049 41.6698C4.11747 44.1423 4.00993 46.8984 4.83718 49.443C5.42816 51.2714 5.54053 53.2207 5.16362 55.105C4.78672 56.9892 3.93309 58.7453 2.68422 60.2058M3.0646 60.5303C3.06472 60.5302 3.06484 60.5301 3.06496 60.5299L2.68422 60.2058M3.0646 60.5303C3.06448 60.5305 3.06436 60.5306 3.06423 60.5308L2.68422 60.2058M3.0646 60.5303C1.4091 62.4754 0.5 64.946 0.5 67.5C0.5 70.0542 1.40923 72.525 3.06496 74.4701C4.36898 75.9954 5.26032 77.8293 5.65391 79.797C6.04758 81.765 5.93022 83.801 5.31295 85.7108L5.31269 85.7116C4.52223 88.143 4.62498 90.7766 5.6025 93.139C6.58001 95.5014 8.3682 97.4379 10.6457 98.6003C12.4337 99.5118 13.958 100.867 15.0727 102.535C16.1876 104.204 16.8556 106.131 17.0129 108.131L17.0129 108.132C17.2128 110.68 18.3159 113.073 20.1236 114.88C21.9313 116.688 24.3249 117.791 26.8737 117.991C28.8746 118.148 30.8017 118.816 32.4707 119.93C34.1397 121.045 35.4947 122.569 36.4064 124.357C37.569 126.634 39.5057 128.422 41.8686 129.399C44.2315 130.376 46.8656 130.479 49.2974 129.689L49.2984 129.688C51.2075 129.072 53.2425 128.954 55.2102 129.345C57.1778 129.737 59.0127 130.624 60.5406 131.924L60.5417 131.925C62.4838 133.587 64.9559 134.5 67.512 134.5C70.0682 134.5 72.5402 133.587 74.4824 131.925L74.4834 131.924C76.0113 130.624 77.8462 129.737 79.8139 129.345C81.7815 128.954 83.8166 129.072 85.7257 129.688L85.726 129.689C88.1536 130.474 90.7814 130.37 93.1392 129.395C95.4967 128.42 97.4303 126.638 98.5942 124.369C99.5058 122.581 100.861 121.057 102.53 119.942C104.199 118.827 106.126 118.16 108.127 118.002L108.127 118.002C110.671 117.803 113.06 116.705 114.867 114.905C116.674 113.104 117.78 110.719 117.988 108.177M2.68422 60.2058L117.988 108.177M117.988 108.177C117.988 108.178 117.988 108.179 117.988 108.179L118.486 108.217L117.988 108.177C117.988 108.177 117.988 108.177 117.988 108.177ZM124.355 98.6471C124.355 98.6469 124.356 98.6468 124.356 98.6466L124.582 99.0925L124.355 98.6471Z" stroke="white"/>
<path d="M31.1634 29.0887L27.0887 28.8366L26.8366 32.9113L30.9113 33.1634L31.1634 29.0887ZM30.7891 106.265L31.2655 102.211L27.2109 101.735L26.7345 105.789L30.7891 106.265ZM28.669 30.6253C22.9327 35.6929 16.0748 45.4443 14.0738 58.2729C12.0696 71.1226 14.946 87.0107 28.6076 104.31L29.3924 103.69C15.8875 86.5893 13.1043 70.9774 15.0619 58.4271C17.0227 45.8557 23.7479 36.3071 29.331 31.3747L28.669 30.6253Z" fill="white"/>
<path d="M40.0066 31.6922C39.5034 32.0315 38.9941 32.219 38.4786 32.2547C37.9704 32.2854 37.4345 32.1574 36.8708 31.8707L37.4079 30.4759C37.6538 30.6005 37.9052 30.6569 38.1619 30.6451C38.4186 30.6334 38.6468 30.5602 38.8466 30.4254C39.1648 30.2109 39.333 29.9576 39.3513 29.6656C39.3769 29.3687 39.2131 28.979 38.8598 28.4966L35.5533 23.9822L37.1849 22.882L40.5863 27.526C40.9238 27.9868 41.1499 28.469 41.2644 28.9725C41.3737 29.4689 41.3315 29.9545 41.1377 30.4294C40.946 30.8921 40.5689 31.313 40.0066 31.6922Z" fill="white"/>
<path d="M47.4682 27.745C46.7527 28.0688 46.0418 28.1897 45.3357 28.1078C44.6376 28.0223 43.9845 27.745 43.3763 27.2761C42.7763 26.8035 42.2657 26.1387 41.8445 25.2817C41.4272 24.4327 41.2213 23.6398 41.2269 22.9029C41.2407 22.1624 41.4391 21.5146 41.8222 20.9594C42.2095 20.3925 42.7609 19.9471 43.4764 19.6234C44.192 19.2996 44.9009 19.1747 45.6031 19.2485C46.3014 19.3144 46.9486 19.5796 47.5447 20.0442C48.1408 20.5088 48.6475 21.1656 49.0648 22.0146C49.486 22.8716 49.6958 23.6725 49.6941 24.4174C49.6924 25.1622 49.4999 25.8221 49.1165 26.397C48.7332 26.9719 48.1837 27.4212 47.4682 27.745ZM46.7183 26.2192C47.0842 26.0536 47.346 25.8078 47.5039 25.4819C47.6659 25.1442 47.7216 24.7519 47.6708 24.3049C47.6282 23.8542 47.479 23.3685 47.2231 22.8479C46.9672 22.3273 46.6756 21.9159 46.3481 21.6137C46.0249 21.2998 45.6818 21.1074 45.319 21.0366C44.9604 20.9541 44.5982 20.9956 44.2323 21.1612C43.8745 21.3231 43.6107 21.5648 43.4408 21.8865C43.2669 22.2001 43.1994 22.5783 43.238 23.021C43.2809 23.4519 43.4303 23.9277 43.6861 24.4484C43.942 24.969 44.2335 25.3902 44.5607 25.7121C44.896 26.0304 45.251 26.2369 45.6256 26.3318C45.9963 26.4186 46.3605 26.3811 46.7183 26.2192Z" fill="white"/>
<path d="M52.1689 25.9408L49.5748 17.607L51.4665 17.0648L54.0607 25.3987L52.1689 25.9408Z" fill="white"/>
<path d="M56.8654 24.7649L55.5602 16.1348L57.6021 15.8505L60.4589 19.791C60.6621 20.0601 60.8553 20.3531 61.0386 20.6699C61.2294 20.9767 61.4172 21.293 61.6018 21.6187L61.6548 21.6113C61.5399 21.1497 61.4095 20.6453 61.2635 20.098C61.1176 19.5507 61.0059 19.0211 60.9285 18.5093L60.4661 15.4517L62.3356 15.1914L63.6408 23.8215L61.5989 24.1058L58.742 20.1653C58.5477 19.895 58.3501 19.6026 58.1491 19.2882C57.957 18.9726 57.7692 18.6564 57.5859 18.3395L57.5329 18.3469C57.658 18.816 57.7935 19.3242 57.9395 19.8715C58.0841 20.41 58.1951 20.9352 58.2725 21.447L58.7349 24.5046L56.8654 24.7649Z" fill="white"/>
<path d="M72.2404 24.6202C71.4609 24.5249 70.7984 24.2597 70.253 23.8244C69.7165 23.3903 69.3245 22.8164 69.0771 22.1029C68.8386 21.3905 68.7822 20.5609 68.9078 19.6143C69.0323 18.6765 69.3024 17.8959 69.7183 17.2724C70.143 16.65 70.6705 16.202 71.301 15.9284C71.9415 15.6471 72.6516 15.554 73.4311 15.6493C74.2107 15.7446 74.8738 16.0054 75.4203 16.4318C75.9681 16.8494 76.3618 17.4099 76.6015 18.1135C76.8412 18.8171 76.8988 19.6378 76.7743 20.5756C76.6487 21.5222 76.3774 22.3117 75.9604 22.944C75.5433 23.5763 75.014 24.0376 74.3723 24.3278C73.7306 24.618 73.02 24.7155 72.2404 24.6202ZM72.4641 22.9348C72.8628 22.9835 73.2191 22.9102 73.5331 22.7148C73.8572 22.5117 74.1227 22.207 74.3296 21.8007C74.5454 21.3956 74.6915 20.9054 74.7678 20.3304C74.8442 19.7553 74.8296 19.2546 74.7242 18.8281C74.6288 18.3939 74.449 18.0528 74.1848 17.8047C73.9307 17.5489 73.6043 17.3966 73.2057 17.3479C72.8159 17.3003 72.4602 17.3692 72.1385 17.5547C71.8179 17.7313 71.5504 18.0177 71.3357 18.4141C71.1311 18.8026 70.9906 19.2844 70.9143 19.8595C70.838 20.4346 70.8469 20.9436 70.9412 21.3867C71.0443 21.8308 71.2261 22.1902 71.4868 22.4648C71.7486 22.7305 72.0744 22.8872 72.4641 22.9348Z" fill="white"/>
<path d="M80.3668 26.4967C79.8211 26.3281 79.3635 26.1073 78.9939 25.8344C78.6357 25.5557 78.3684 25.2163 78.1921 24.8163C78.0186 24.4079 77.9417 23.9359 77.9614 23.4004C77.9811 22.8649 78.1045 22.2587 78.3317 21.5818L79.8563 17.0383L81.7493 17.623L80.1608 22.357C79.9876 22.8731 79.9053 23.3006 79.914 23.6394C79.9254 23.9698 80.0151 24.2356 80.1828 24.4368C80.3506 24.6381 80.5922 24.7874 80.9077 24.8849C81.2147 24.9797 81.5017 24.9937 81.7688 24.9268C82.036 24.8599 82.2746 24.6955 82.4849 24.4336C82.7064 24.1659 82.9038 23.774 83.077 23.2579L84.6655 18.5239L86.4818 19.085L84.9571 23.6286C84.73 24.3055 84.4616 24.8669 84.152 25.3128C83.8509 25.7614 83.5057 26.103 83.1164 26.3376C82.7385 26.5664 82.3194 26.6937 81.859 26.7195C81.4014 26.7369 80.904 26.6626 80.3668 26.4967Z" fill="white"/>
<path d="M84.7892 27.9406L89.0121 20.3019L91.8158 21.7289C92.3646 22.0082 92.8247 22.3374 93.196 22.7166C93.5717 23.0879 93.7975 23.5181 93.8737 24.0072C93.9541 24.4885 93.8281 25.0299 93.4956 25.6313C93.1718 26.2171 92.7732 26.6247 92.2998 26.8542C91.8264 27.0836 91.3134 27.1728 90.7607 27.1217C90.2124 27.0628 89.6638 26.8937 89.115 26.6144L88.0651 26.08L86.543 28.8332L84.7892 27.9406ZM88.8229 24.7093L89.7296 25.1707C90.1909 25.4055 90.5927 25.4899 90.9349 25.4239C91.2895 25.3541 91.5703 25.1318 91.7776 24.7569C91.9849 24.382 92.0062 24.0576 91.8417 23.7837C91.6851 23.5139 91.3762 23.2615 90.9149 23.0267L90.0082 22.5653L88.8229 24.7093ZM89.0007 30.0841L89.039 26.0052L90.8712 25.5116L90.9693 31.086L89.0007 30.0841Z" fill="white"/>
<path d="M95.9193 34.9648L100.799 29.8507L98.9982 28.2693L100.144 27.0683L105.233 31.5386L104.088 32.7396L102.287 31.1582L97.4079 36.2723L95.9193 34.9648Z" fill="white"/>
<path d="M99.9492 38.7589L106.918 33.5031L110.379 37.7281L109.054 38.7277L106.839 36.0249L105.439 37.0809L107.323 39.3798L106.008 40.3713L104.125 38.0724L102.522 39.2816L104.821 42.0879L103.495 43.0875L99.9492 38.7589Z" fill="white"/>
<path d="M103.8 43.4901L112.877 41.7855L114.049 43.8296L107.694 50.2843L106.656 48.4725L109.997 45.4234C110.322 45.1109 110.672 44.7898 111.048 44.46C111.425 44.1302 111.786 43.8088 112.13 43.4957L112.104 43.4493C111.652 43.5765 111.181 43.7044 110.689 43.8328C110.197 43.9613 109.727 44.0734 109.278 44.1691L104.798 45.2322L103.8 43.4901ZM106.527 44.0779L107.888 43.3593L109.979 47.0061L108.617 47.7247L106.527 44.0779Z" fill="white"/>
<path d="M107.748 50.6823L116.071 48.0532L116.784 50.1298L113.534 52.6161C113.316 52.7785 113.091 52.9337 112.859 53.0819C112.638 53.2359 112.405 53.3938 112.158 53.5558L112.176 53.6065C112.474 53.5964 112.758 53.5862 113.028 53.5758C113.307 53.5626 113.584 53.5593 113.86 53.5658L118.005 53.6879L118.717 55.7645L110.394 58.3937L109.808 56.6843L112.859 55.7205C113.131 55.6345 113.455 55.5463 113.829 55.4561C114.215 55.3715 114.597 55.2884 114.974 55.2065C115.363 55.1305 115.7 55.0663 115.984 55.014L115.966 54.9634L113.54 54.9859L109.962 54.825L109.589 53.7361L112.372 51.5797L114.346 50.2404L114.328 50.1897C114.068 50.3095 113.756 50.4454 113.393 50.5975C113.042 50.7553 112.683 50.906 112.317 51.0496C111.96 51.1905 111.645 51.304 111.373 51.39L108.322 52.3538L107.748 50.6823Z" fill="white"/>
<path d="M110.474 72.4243C110.549 71.8222 110.743 71.3191 111.055 70.915C111.366 70.5198 111.814 70.2125 112.399 69.9929L113.093 71.3401C112.838 71.4363 112.63 71.583 112.471 71.78C112.311 71.9771 112.216 72.1952 112.186 72.4343C112.138 72.815 112.217 73.1117 112.424 73.3244C112.63 73.546 113.03 73.6912 113.624 73.7601L119.183 74.4051L118.937 76.3575L113.219 75.694C112.651 75.6282 112.141 75.4657 111.688 75.2065C111.244 74.9483 110.907 74.5858 110.678 74.119C110.457 73.6621 110.389 73.0972 110.474 72.4243Z" fill="white"/>
<path d="M108.545 80.5171C108.78 79.7677 109.162 79.1584 109.693 78.6894C110.221 78.2288 110.861 77.9308 111.614 77.7954C112.365 77.6684 113.199 77.7374 114.116 78.0022C115.025 78.2646 115.752 78.6462 116.296 79.1469C116.837 79.6562 117.187 80.2401 117.345 80.8987C117.51 81.5682 117.474 82.2777 117.239 83.0271C117.004 83.7765 116.626 84.387 116.104 84.8585C115.59 85.3325 114.963 85.6342 114.221 85.7637C113.479 85.8931 112.654 85.8266 111.745 85.5642C110.827 85.2993 110.092 84.9153 109.539 84.4121C108.986 83.9089 108.624 83.3213 108.451 82.6492C108.278 81.9772 108.31 81.2664 108.545 80.5171ZM110.178 80.9886C110.058 81.3718 110.067 81.7319 110.204 82.0687C110.347 82.4166 110.602 82.7223 110.968 82.9859C111.332 83.258 111.792 83.4745 112.35 83.6354C112.907 83.7963 113.407 83.857 113.849 83.8176C114.298 83.7892 114.669 83.6642 114.963 83.4426C115.263 83.232 115.473 82.935 115.593 82.5518C115.71 82.1771 115.706 81.8183 115.58 81.4754C115.462 81.135 115.226 80.83 114.871 80.5604C114.522 80.3017 114.069 80.0919 113.511 79.931C112.954 79.7701 112.447 79.7027 111.99 79.7286C111.53 79.7631 111.14 79.8874 110.821 80.1016C110.51 80.3182 110.296 80.6139 110.178 80.9886Z" fill="white"/>
<path d="M106.803 85.0337L114.748 88.6476L113.876 90.4119L105.931 86.7979L106.803 85.0337Z" fill="white"/>
<path d="M104.508 89.1988L111.857 93.908L110.679 95.6001L105.784 95.1164C105.444 95.0894 105.093 95.0393 104.731 94.9662C104.372 94.9053 104.007 94.8358 103.637 94.7579L103.607 94.8018C104.031 95.0204 104.497 95.2558 105.006 95.5078C105.515 95.7599 105.988 96.0256 106.423 96.3049L109.027 97.9733L107.949 99.5225L100.6 94.8133L101.778 93.1213L106.673 93.6049C107.008 93.6392 107.361 93.6857 107.733 93.7441C108.1 93.8099 108.465 93.8793 108.827 93.9524L108.858 93.9085C108.421 93.6924 107.948 93.4583 107.439 93.2063C106.938 92.959 106.469 92.6957 106.033 92.4164L103.43 90.748L104.508 89.1988Z" fill="white"/>
<path d="M94.122 100.254C94.7273 99.7537 95.3826 99.4491 96.0879 99.3404C96.7864 99.2373 97.4929 99.3301 98.2074 99.6187C98.9151 99.9129 99.588 100.415 100.226 101.126C100.858 101.83 101.27 102.536 101.463 103.244C101.649 103.958 101.631 104.633 101.41 105.267C101.187 105.913 100.774 106.487 100.168 106.987C99.563 107.488 98.9107 107.796 98.2113 107.911C97.5179 108.033 96.8203 107.95 96.1186 107.663C95.4169 107.375 94.75 106.879 94.118 106.175C93.4799 105.465 93.0616 104.752 92.8629 104.037C92.6642 103.322 92.6731 102.638 92.8895 101.985C93.1058 101.331 93.5167 100.755 94.122 100.254ZM95.2579 101.519C94.9484 101.775 94.7611 102.08 94.696 102.435C94.63 102.802 94.6817 103.193 94.8509 103.608C95.0133 104.029 95.2883 104.456 95.6759 104.887C96.0635 105.319 96.4564 105.636 96.8545 105.84C97.2516 106.055 97.6353 106.149 98.0054 106.12C98.3746 106.104 98.7139 105.968 99.0234 105.712C99.3261 105.462 99.5164 105.16 99.5943 104.807C99.6782 104.46 99.6419 104.079 99.4854 103.664C99.3281 103.262 99.0556 102.845 98.668 102.414C98.2804 101.982 97.8851 101.655 97.4819 101.433C97.0719 101.217 96.6729 101.113 96.2849 101.121C95.9029 101.136 95.5606 101.269 95.2579 101.519Z" fill="white"/>
<path d="M87.1485 104.656C87.6474 104.378 88.1271 104.198 88.5877 104.115C89.045 104.043 89.4879 104.077 89.9161 104.216C90.3491 104.363 90.7658 104.621 91.1665 104.99C91.5671 105.358 91.9524 105.848 92.3222 106.459L94.8048 110.558L93.0743 111.523L90.4877 107.252C90.2057 106.786 89.9308 106.444 89.6631 106.226C89.3999 106.015 89.1339 105.903 88.8651 105.89C88.5963 105.876 88.3176 105.95 88.0292 106.111C87.7486 106.267 87.5439 106.463 87.4152 106.698C87.2865 106.933 87.2524 107.213 87.3129 107.536C87.3702 107.872 87.5398 108.273 87.8219 108.738L90.4084 113.01L88.7481 113.935L86.2655 109.836C85.8957 109.225 85.643 108.661 85.5073 108.145C85.3639 107.632 85.333 107.16 85.4146 106.726C85.4929 106.305 85.6776 105.921 85.9685 105.575C86.2641 105.236 86.6574 104.93 87.1485 104.656Z" fill="white"/>
<path d="M83.0294 106.69L86.1343 114.848L83.1654 115.888C82.5842 116.092 82.0235 116.198 81.4831 116.208C80.9458 116.226 80.4626 116.098 80.0334 115.823C79.6073 115.556 79.2721 115.102 79.0276 114.459C78.7895 113.834 78.739 113.275 78.8762 112.783C79.0133 112.29 79.2854 111.864 79.6925 111.504C80.1027 111.152 80.5984 110.874 81.1796 110.671L82.2913 110.281L81.1722 107.341L83.0294 106.69ZM82.8485 111.745L81.8883 112.081C81.3998 112.253 81.0673 112.483 80.8909 112.771C80.7091 113.071 80.6945 113.422 80.8469 113.822C80.9992 114.222 81.2361 114.456 81.5576 114.523C81.8706 114.593 82.2713 114.542 82.7598 114.371L83.72 114.035L82.8485 111.745ZM78.5697 108.253L81.7016 111.027L80.8654 112.667L76.4851 108.984L78.5697 108.253Z" fill="white"/>
<path d="M70.1824 109.72L70.8925 116.753L73.2785 116.531L73.4452 118.182L66.7005 118.809L66.5338 117.158L68.9197 116.936L68.2096 109.903L70.1824 109.72Z" fill="white"/>
<path d="M64.5751 109.968L63.9685 118.675L58.5178 118.325L58.6332 116.67L62.12 116.893L62.2419 115.144L59.2761 114.953L59.3905 113.311L62.3563 113.501L62.4959 111.498L58.8754 111.266L58.9908 109.61L64.5751 109.968Z" fill="white"/>
<path d="M58.3787 109.501L53.6445 117.381L51.3457 116.865L50.7379 107.784L52.7755 108.242L52.8381 112.783C52.8563 113.235 52.8638 113.712 52.8606 114.215C52.8574 114.717 52.8584 115.202 52.8637 115.67L52.9159 115.681C53.1196 115.261 53.3363 114.825 53.5659 114.373C53.7955 113.922 54.0231 113.497 54.2487 113.1L56.4195 109.061L58.3787 109.501ZM56.1365 111.123L55.7714 112.619L51.6702 111.697L52.0352 110.202L56.1365 111.123Z" fill="white"/>
<path d="M50.2748 107.535L46.6336 115.468L44.6113 114.613L44.9484 110.543C44.9742 110.273 45.01 110.003 45.056 109.731C45.0899 109.465 45.1295 109.186 45.1747 108.895L45.1253 108.875C44.9322 109.103 44.7488 109.321 44.5751 109.528C44.3976 109.744 44.2138 109.952 44.0236 110.152L41.1463 113.149L39.124 112.294L42.7652 104.362L44.4299 105.065L43.0952 107.973C42.976 108.233 42.8241 108.532 42.6393 108.87C42.4426 109.213 42.2478 109.552 42.0548 109.887C41.8499 110.226 41.6714 110.519 41.5194 110.764L41.5687 110.785L43.1828 108.969L45.7079 106.419L46.7683 106.867L46.4999 110.371L46.1682 112.729L46.2175 112.75C46.3037 112.476 46.4123 112.154 46.5433 111.784C46.6623 111.417 46.7913 111.051 46.9305 110.683C47.0659 110.324 47.1932 110.015 47.3124 109.755L48.6471 106.847L50.2748 107.535Z" fill="white"/>
</svg>
