<svg width="55" height="43" viewBox="0 0 55 43" fill="none" xmlns="http://www.w3.org/2000/svg">
<path d="M0 19.7074H13.3403C13.1122 30.0023 10.3547 31.1709 6.89126 31.5044L5.55568 31.6797V43L7.09515 42.9126C11.6178 42.6432 16.6179 41.7799 19.9538 37.4193C22.878 33.5966 24.1672 27.3515 24.1672 17.7646V0H0V19.7074Z" fill="white" fill-opacity="0.6"/>
<path d="M30.834 0V19.7074H43.9962C43.7682 30.0023 41.0998 31.1709 37.6364 31.5044L36.3897 31.6797V43L37.8402 42.9126C42.3628 42.6432 47.4077 41.7799 50.7436 37.4193C53.6675 33.5966 55.0012 27.3515 55.0012 17.7646V0H30.834Z" fill="white" fill-opacity="0.6"/>
</svg>
