<svg width="100" height="84" viewBox="0 0 100 84" fill="none" xmlns="http://www.w3.org/2000/svg">
<mask id="mask0_74_74" style="mask-type:luminance" maskUnits="userSpaceOnUse" x="0" y="0" width="100" height="84">
<path d="M0 0H100V83.1575H0V0Z" fill="white"/>
</mask>
<g mask="url(#mask0_74_74)">
<path d="M17.7739 18.8029H6.50972C7.78952 16.8067 9.24516 14.9505 10.9222 13.332C15.2566 9.00089 20.7861 5.90397 26.9572 4.5851C24.4822 6.36314 22.2646 9.00089 20.467 12.4137C19.451 14.2927 18.5326 16.4485 17.7739 18.8029ZM32.2685 18.8029H19.4086C20.0697 16.7285 20.9066 14.83 21.8445 13.0943C24.72 7.74063 28.6147 4.3083 32.8481 3.94683V17.7445C32.6299 18.0865 32.4508 18.4447 32.2685 18.8029ZM35.945 18.8029H34.4047V3.94683C36.9611 4.16827 39.4392 5.48389 41.6146 7.74063C39.5369 9.37864 37.6417 11.2348 35.9646 13.3125V18.8029H35.945ZM51.0616 18.8029H49.4627C48.7039 16.468 47.8247 14.2927 46.7663 12.3941C44.9492 9.00089 42.7543 6.3436 40.2762 4.56556C41.696 4.86516 43.0539 5.2657 44.3891 5.76395C44.1709 5.90397 43.9527 6.02446 43.7704 6.16449C45.0502 7.04374 45.848 7.98161 45.848 7.98161V8.02069H45.8871V8.05976C46.7272 9.21907 47.486 10.4565 48.1438 11.6354C49.124 13.4525 49.9219 15.3087 50.5797 17.2463C50.7002 17.5068 50.8793 18.1255 51.0616 18.8029ZM49.9414 20.3432H61.6647C61.922 20.8219 62.202 21.3592 62.4626 21.8803H51.9376C52.9178 25.7327 53.3965 29.7088 53.5365 33.6818C53.5756 34.1605 53.5756 34.701 53.5756 35.2188H52.0386C51.98 29.8456 51.2407 24.8144 49.9414 20.3432ZM34.3852 20.3432H48.2838C48.463 20.8219 48.5834 21.3592 48.7235 21.8803H35.9027V35.2188H34.3657V20.3432H34.3852ZM18.9299 20.3432H32.8677V21.8803H30.7933C29.0153 25.9932 28.0155 30.5067 27.9178 35.2188H16.7546C16.7937 29.8065 17.5915 24.7557 18.9299 20.3432ZM5.57185 20.3432H17.2919C16.0154 24.8144 15.2566 29.8456 15.2175 35.2384H1.498C1.63802 29.8065 3.09693 24.7557 5.57185 20.3432ZM17.2919 51.6738H5.57185C3.09693 47.1994 1.63802 42.1681 1.498 36.7754H15.198C15.2566 42.1291 15.9958 47.2189 17.2919 51.6738ZM31.4706 51.6738H18.9299C17.6111 47.1994 16.8132 42.1681 16.7741 36.7754H32.8677V38.3125H27.9569C28.2565 43.0669 29.494 47.5804 31.4706 51.6738ZM35.945 51.6738H34.4047V36.7754H50.482C50.482 37.2541 50.482 37.7947 50.4396 38.3125H35.945V51.6738ZM51.5403 51.6738H49.9414C51.2212 47.1994 51.98 42.1291 52.019 36.7754H65.7158C65.6767 37.2541 65.6767 37.7947 65.6376 38.3125H53.5365C53.3965 42.2463 52.9178 46.2225 51.9376 50.114C51.8399 50.4363 51.7194 51.0127 51.5403 51.6738ZM49.4627 53.2304H60.7464C60.3849 53.7091 60.0463 54.2497 59.688 54.7675H50.5797C49.9219 56.666 49.124 58.5222 48.1438 60.3393C47.486 61.5768 46.6882 62.8566 45.848 64.0126C45.1511 64.7128 44.3891 65.2924 43.6303 65.7907C43.8909 65.9307 44.1123 66.0902 44.3891 66.2694C43.0735 66.709 41.696 67.1095 40.2762 67.4287C42.7543 65.6506 44.9688 63.0161 46.7663 59.6001C47.8247 57.682 48.7039 55.5262 49.4627 53.2304ZM34.3852 53.2304H47.8051C47.626 53.7091 47.4469 54.2497 47.2678 54.7675H35.9027V58.6622C37.5798 60.7399 39.4783 62.596 41.556 64.2341C39.3969 66.4908 36.922 67.8487 34.3461 68.0865V53.2304H34.3852ZM19.4086 53.2304H32.8481V68.0865C28.6147 67.6892 24.72 64.2341 21.8445 58.8999C20.9066 57.1642 20.0697 55.2657 19.4086 53.2304ZM6.50972 53.2304H17.7739C18.5326 55.5262 19.451 57.7048 20.467 59.6001C22.2841 62.9966 24.4822 65.6506 26.9572 67.4287C20.7666 66.1098 15.2371 63.0161 10.9222 58.7208C9.24516 57.0242 7.78952 55.2071 6.50972 53.2304ZM33.646 2.35115C24.3227 2.35115 15.9144 6.10262 9.82482 12.215C3.7352 18.3242 -0.0390625 26.7129 -0.0390625 35.9971C-0.0390625 45.2813 3.71566 53.7286 9.82482 59.7792C15.9144 65.8721 24.3227 69.6463 33.646 69.6463C42.9334 69.6463 51.3189 65.8916 57.4313 59.7792C63.5209 53.7286 67.2952 45.2813 67.2952 35.9971C67.2952 26.7129 63.5405 18.3242 57.4313 12.215C51.3189 6.10262 42.9139 2.35115 33.646 2.35115ZM60.7236 71.8412V83.063L77.6182 69.2262C91.0186 63.6935 99.8046 50.5731 99.8046 35.9971C99.8046 16.1489 83.7078 0.0130005 63.8205 0.0130005C58.0696 0.0130005 52.6378 1.39049 47.8247 3.76772C51.7585 5.54576 55.3732 7.96207 58.5287 11.0948C65.2371 17.8064 68.8322 26.2928 68.8322 35.9776C68.8322 45.3432 65.1199 54.2301 58.5287 60.8571C55.3927 63.9931 51.7585 66.4713 47.8247 68.1874C51.7585 70.1641 56.132 71.4407 60.7236 71.8412Z" fill="#9CFE4F"/>
</g>
</svg>
