<svg width="100" height="84" viewBox="0 0 100 84" fill="none" xmlns="http://www.w3.org/2000/svg">
<g clip-path="url(#clip0_119_74)">
<mask id="mask0_119_74" style="mask-type:luminance" maskUnits="userSpaceOnUse" x="0" y="0" width="100" height="84">
<path d="M0 0H100V83.1575H0V0Z" fill="white"/>
</mask>
<g mask="url(#mask0_119_74)">
<path d="M17.7739 18.8028H6.50972C7.78952 16.8066 9.24516 14.9504 10.9222 13.3319C15.2566 9.00083 20.7861 5.90391 26.9572 4.58504C24.4822 6.36308 22.2646 9.00083 20.467 12.4136C19.451 14.2926 18.5326 16.4484 17.7739 18.8028ZM32.2685 18.8028H19.4086C20.0697 16.7284 20.9066 14.8299 21.8445 13.0942C24.72 7.74057 28.6147 4.30824 32.8481 3.94677V17.7444C32.6299 18.0864 32.4508 18.4446 32.2685 18.8028ZM35.945 18.8028H34.4047V3.94677C36.9611 4.16821 39.4392 5.48383 41.6146 7.74057C39.5369 9.37858 37.6417 11.2347 35.9646 13.3124V18.8028H35.945ZM51.0616 18.8028H49.4627C48.7039 16.4679 47.8247 14.2926 46.7663 12.394C44.9492 9.00083 42.7543 6.34354 40.2762 4.5655C41.696 4.8651 43.0539 5.26564 44.3891 5.76389C44.1709 5.90391 43.9527 6.0244 43.7704 6.16443C45.0502 7.04368 45.848 7.98155 45.848 7.98155V8.02063H45.8871V8.0597C46.7272 9.21901 47.486 10.4564 48.1438 11.6353C49.124 13.4524 49.9219 15.3086 50.5797 17.2462C50.7002 17.5067 50.8793 18.1254 51.0616 18.8028ZM49.9414 20.3431H61.6647C61.922 20.8218 62.202 21.3591 62.4626 21.8802H51.9376C52.9178 25.7326 53.3965 29.7087 53.5365 33.6817C53.5756 34.1604 53.5756 34.7009 53.5756 35.2187H52.0386C51.98 29.8455 51.2407 24.8143 49.9414 20.3431ZM34.3852 20.3431H48.2838C48.463 20.8218 48.5834 21.3591 48.7235 21.8802H35.9027V35.2187H34.3657V20.3431H34.3852ZM18.9299 20.3431H32.8677V21.8802H30.7933C29.0153 25.9931 28.0155 30.5066 27.9178 35.2187H16.7546C16.7937 29.8064 17.5915 24.7556 18.9299 20.3431ZM5.57185 20.3431H17.2919C16.0154 24.8143 15.2566 29.8455 15.2175 35.2383H1.498C1.63802 29.8064 3.09693 24.7556 5.57185 20.3431ZM17.2919 51.6737H5.57185C3.09693 47.1993 1.63802 42.168 1.498 36.7753H15.198C15.2566 42.129 15.9958 47.2188 17.2919 51.6737ZM31.4706 51.6737H18.9299C17.6111 47.1993 16.8132 42.168 16.7741 36.7753H32.8677V38.3124H27.9569C28.2565 43.0668 29.494 47.5803 31.4706 51.6737ZM35.945 51.6737H34.4047V36.7753H50.482C50.482 37.254 50.482 37.7946 50.4396 38.3124H35.945V51.6737ZM51.5403 51.6737H49.9414C51.2212 47.1993 51.98 42.129 52.019 36.7753H65.7158C65.6767 37.254 65.6767 37.7946 65.6376 38.3124H53.5365C53.3965 42.2462 52.9178 46.2224 51.9376 50.1139C51.8399 50.4362 51.7194 51.0126 51.5403 51.6737ZM49.4627 53.2303H60.7464C60.3849 53.709 60.0463 54.2496 59.688 54.7674H50.5797C49.9219 56.6659 49.124 58.5221 48.1438 60.3392C47.486 61.5767 46.6882 62.8565 45.848 64.0125C45.1511 64.7127 44.3891 65.2923 43.6303 65.7906C43.8909 65.9306 44.1123 66.0901 44.3891 66.2693C43.0735 66.7089 41.696 67.1094 40.2762 67.4286C42.7543 65.6505 44.9688 63.016 46.7663 59.6C47.8247 57.6819 48.7039 55.5261 49.4627 53.2303ZM34.3852 53.2303H47.8051C47.626 53.709 47.4469 54.2496 47.2678 54.7674H35.9027V58.6621C37.5798 60.7398 39.4783 62.5959 41.556 64.234C39.3969 66.4907 36.922 67.8486 34.3461 68.0864V53.2303H34.3852ZM19.4086 53.2303H32.8481V68.0864C28.6147 67.6891 24.72 64.234 21.8445 58.8998C20.9066 57.1641 20.0697 55.2656 19.4086 53.2303ZM6.50972 53.2303H17.7739C18.5326 55.5261 19.451 57.7047 20.467 59.6C22.2841 62.9965 24.4822 65.6505 26.9572 67.4286C20.7666 66.1097 15.2371 63.016 10.9222 58.7207C9.24516 57.0241 7.78952 55.207 6.50972 53.2303ZM33.646 2.35109C24.3227 2.35109 15.9144 6.10256 9.82482 12.2149C3.7352 18.3241 -0.0390625 26.7128 -0.0390625 35.997C-0.0390625 45.2812 3.71566 53.7285 9.82482 59.7791C15.9144 65.872 24.3227 69.6462 33.646 69.6462C42.9334 69.6462 51.3189 65.8915 57.4313 59.7791C63.5209 53.7285 67.2952 45.2812 67.2952 35.997C67.2952 26.7128 63.5405 18.3241 57.4313 12.2149C51.3189 6.10256 42.9139 2.35109 33.646 2.35109ZM60.7236 71.8411V83.0629L77.6182 69.2261C91.0186 63.6934 99.8046 50.573 99.8046 35.997C99.8046 16.1488 83.7078 0.0129395 63.8205 0.0129395C58.0696 0.0129395 52.6378 1.39043 47.8247 3.76766C51.7585 5.5457 55.3732 7.96201 58.5287 11.0947C65.2371 17.8063 68.8322 26.2927 68.8322 35.9775C68.8322 45.3431 65.1199 54.23 58.5287 60.857C55.3927 63.993 51.7585 66.4712 47.8247 68.1873C51.7585 70.164 56.132 71.4406 60.7236 71.8411Z" fill="#6863F2"/>
</g>
</g>
<defs>
<clipPath id="clip0_119_74">
<rect width="100" height="84" fill="white"/>
</clipPath>
</defs>
</svg>
