<svg width="211" height="239" viewBox="0 0 211 239" fill="none" xmlns="http://www.w3.org/2000/svg">
<g clip-path="url(#clip0_124_2)">
<path d="M103.859 78.1274C80.9968 60.865 44.5282 51.4215 22.4037 57.0353C14.5797 59.0216 9.59662 62.6247 7.43528 67.2164L5.85964 71.9227C5.03063 74.8512 3.90041 78.7453 3.1924 81.706C4.66119 77.2005 9.7086 73.4945 18.4029 71.2893C40.5273 65.6742 77.8919 71.9253 101.858 85.2512C115.704 92.9504 122.049 101.325 120.671 108.109C123.55 99.836 117.912 88.7397 103.859 78.1274Z" fill="url(#paint0_linear_124_2)"/>
<path d="M100.342 97.1495C113.319 100.941 119.256 104.415 120.311 108.938C120.231 109.084 120.148 109.228 120.065 109.371C118.465 106.368 111.817 103.55 100.283 101.537C75.4464 97.2023 37.3777 98.2398 15.2533 103.854C5.19577 106.405 0.165083 109.464 0.000311319 112.447C0.0243405 113.992 0.0749647 115.546 0.152201 117.11C0.312682 120.339 0.590317 123.591 0.985083 126.868C4.12089 119.688 65.5987 110.076 100.843 109.747C110.24 109.756 115.955 110.223 118.673 111.259C118.605 111.343 118.536 111.424 118.467 111.505L118.69 111.266L118.726 111.28C118.234 111.853 117.901 112.238 117.623 112.543C117.446 112.718 117.237 112.92 116.971 113.172H116.92C117.404 112.695 117.925 112.142 118.465 111.507C117.92 112.079 117.354 112.633 116.767 113.17C113.708 113.14 108.844 113.509 101.522 114.297C62.2737 118.921 5.63731 130.635 2.1771 134.85C3.06455 139.813 4.20961 144.726 5.60769 149.57C6.26034 149.818 11.5871 148.717 21.6446 146.165C43.7704 140.548 80.4089 130.041 103.479 122.692C108.022 121.245 111.697 120.031 114.505 119.051C115.682 119.153 116.853 119.321 118.012 119.553C119.005 119.818 119.968 120.124 120.9 120.474C118.824 122.684 113.864 125.948 105.997 130.1C84.3171 141.541 48.8049 155.367 26.6805 160.982C16.6242 163.533 11.0645 163.943 10.0269 162.569C10.9117 164.815 11.8424 167.016 12.819 169.171C13.9068 171.352 15.2958 174.291 16.4505 176.436C25.6815 184.127 77.8536 162.457 109.501 137.79C120.13 129.073 123.147 124.566 122.992 121.442C123.234 121.591 123.475 121.743 123.71 121.897C124.811 125.915 120.896 132.82 111.688 141.683C93.1517 159.523 60.187 178.538 38.0561 184.153C29.0053 186.449 23.1713 186.148 20.7049 183.767C22.9898 187.316 26.1115 192.005 28.5959 195.416L28.7246 195.59C31.7601 198.787 37.9235 199.581 46.9602 197.282C69.0847 191.667 100.054 169.713 116.131 148.247C124.995 136.404 127.481 127.193 124.218 122.244C124.255 122.271 124.294 122.295 124.33 122.322C128.742 127.686 127.187 138.104 118.778 151.488C104.173 174.757 74.3934 198.164 52.2651 203.779C43.7562 205.941 37.6288 205.152 34.1274 202.049L39.0847 207.276L44.8221 212.683C48.9285 215.587 54.9671 216.331 62.6638 214.378C84.7882 208.762 112.239 182.983 123.988 156.797C131.147 140.835 130.811 128.41 124.453 122.41C124.512 122.451 124.572 122.491 124.628 122.538C131.864 128.864 133.253 142.209 126.986 159.319C116.899 186.89 90.7856 213.794 68.6612 219.41C61.3237 221.273 55.3404 220.557 50.9959 217.762L56.4372 221.685C58.52 222.982 61.2606 224.774 63.3885 225.993C67.9622 228.318 73.6249 228.846 80.1373 227.193C102.262 221.579 125.806 192.931 132.724 163.206C136.826 145.579 134.16 131.539 126.698 124.19C137.734 133.98 137.999 151.253 135.967 164.918C127.126 210.264 92.7732 238.524 70.8508 229.852C78.8539 233.217 80.0845 233.735 86.9663 235.684L87.5031 235.825C113.734 238.836 139.221 206.799 142.044 167.265C142.844 138.351 132.585 126.613 124.009 121.851C139.234 129.687 145.165 149.758 145.41 168.095C144.446 207.115 122.754 238.388 97.0701 237.809C99.4902 238.09 102.711 238.53 105.14 238.71C107.818 238.817 111.387 239.024 114.067 239.001C141.589 234.261 154.779 199.564 151.621 168.756C147.981 141.891 136.228 126.798 123.464 121.227C123.453 121.2 123.439 121.173 123.425 121.146C138.436 126.998 150.266 144.106 155.005 168.629C160.391 201.35 146.823 232.426 124.699 238.041C124.119 238.188 123.538 238.316 122.957 238.427L130.184 237.31C133.191 236.576 137.206 235.607 140.167 234.707C160.12 227.089 169.495 197.965 161.15 167.467L160.892 167.542C154.547 143.942 139.395 126.084 123.037 120.497C122.969 120.405 122.898 120.315 122.822 120.228C139.929 125.425 156.573 142.969 164.44 166.312C174.002 194.684 167.321 221.916 149.664 231.083C158.085 226.92 158.965 226.485 164.879 222.505L165.485 222.09C178.801 211.188 181.281 187.61 170.088 163.309C159.773 140.911 140.784 124.284 122.588 119.799C122.553 119.722 122.516 119.645 122.477 119.569C141.189 123.624 161.353 139.574 172.904 161.237C185.004 183.912 184.031 206.043 172.117 217.059L177.027 212.666C179.114 210.49 181.899 207.59 183.87 205.309C194.598 189.127 186.363 169.953 177.562 156.717C163.946 136.773 141.856 122.362 122.321 119.144C122.316 119.13 122.311 119.117 122.307 119.103C122.284 119.034 122.262 118.974 122.24 118.91C142.165 121.625 165.197 135.056 179.822 153.882C192.77 170.541 195.81 187.161 189.528 197.884C191.833 194.348 194.78 189.548 196.843 185.866L197.229 185.118C201.349 175.431 196.799 161.661 183.421 148.095C167.156 131.601 142.592 120.228 122.056 118.469C122.038 118.428 122.021 118.386 122.003 118.341C121.997 118.302 121.987 118.264 121.975 118.226C142.787 119.436 168.06 129.568 185.079 144.637C198.685 156.681 203.836 169.054 200.552 178.072C202.016 174.314 203.877 169.267 205.122 165.432L205.396 164.496C207.278 156.86 201.277 147.074 187.54 137.834C169.332 125.583 142.91 117.908 121.665 117.779C121.547 117.685 121.417 117.607 121.279 117.548C142.739 117.025 169.774 123.267 188.551 133.896C202.039 141.531 208.382 149.797 207.385 156.561L208.543 150.453C208.884 147.879 209.389 144.445 209.64 141.857C209.271 136.799 202.585 131.186 189.798 126.326C170.024 118.807 141.678 115.372 119.825 117.226C119.713 117.216 119.596 117.208 119.477 117.201C119.643 117.132 119.801 117.066 119.945 117.003C141.829 114.606 170.242 116.429 190.133 122.036C202.529 125.53 209.268 129.831 210.142 133.96C210.346 129.781 210.343 125.526 210.128 121.216C210.112 120.861 210.093 120.506 210.071 120.151C209.205 117.485 202.476 115.205 190.091 113.943C170.566 111.956 142.814 113.094 121.1 116.414C121.298 116.276 121.339 116.183 121.218 116.138C142.859 112.212 170.392 109.42 189.701 109.444C201.979 109.462 208.61 110.616 209.407 112.467C209.187 110.555 208.924 108.637 208.621 106.713C208.173 103.888 207.635 101.056 207.006 98.2166C205.535 97.9373 198.463 99.1667 188.296 101.099C169.579 104.703 142.541 110.587 121.087 115.668C121.064 115.579 121.042 115.492 121.02 115.411C142.315 109.699 168.926 102.12 187.141 96.5264C198.711 92.9736 204.702 90.8959 205.034 90.4067C204.494 88.499 203.913 86.5929 203.289 84.6886C202.345 81.824 201.327 79.025 200.237 76.2917C200.413 78.2767 195.123 82.4217 184.33 88.2634C167.349 97.4443 141.802 108.073 120.904 114.924C120.884 114.835 120.864 114.748 120.846 114.667C141.48 107.225 166.317 95.0319 182.482 84.009C192.875 76.9212 197.694 71.6743 197.065 68.9478C195.23 65.2327 192.688 60.323 190.657 56.7186C190.43 56.3393 190.203 55.9617 189.974 55.5858C192.303 59.4322 188.63 66.9023 178.586 76.7435C164.144 90.8907 140.817 105.736 120.752 114.192L120.737 114.112C120.728 114.059 120.716 113.996 120.705 113.934C140.431 104.936 162.829 88.7693 176.217 73.0632C185.546 62.1214 188.575 53.6639 185.811 49.1469C184.787 47.6742 183.74 46.2359 182.67 44.8319C180.943 42.6654 178.672 39.7497 176.865 37.6515C181.241 43.0941 179.735 53.5597 171.45 66.9718C160.099 85.3477 139.397 103.788 120.32 113.601L120.242 113.574C120.314 113.478 120.378 113.377 120.436 113.273C139.041 103.009 158.565 83.5635 168.653 63.9982C176.342 49.0902 176.818 37.47 171.288 31.6875C168.132 28.7268 163.822 24.8997 160.488 22.1462C167.892 28.4655 169.419 41.9407 163.222 59.234C155.54 80.6736 138.237 101.696 120.551 112.708L120.524 112.45C137.702 101.09 153.784 79.3323 160.117 57.0212C163.207 44.931 165.931 27.6854 154.104 17.5326C150.725 15.4253 146.159 12.7079 142.648 10.8169L140.948 9.95954C152.046 16.1385 157.644 32.4431 154.216 53.7103C150.421 77.2675 136.657 100.066 120.481 111.978C120.481 111.89 120.468 111.803 120.464 111.72C136.058 99.5631 148.527 76.3612 150.916 52.3355C153.233 29.019 145.409 11.4605 132.221 6.17623L126.042 4.07281C123.596 3.42917 120.523 2.64521 117.753 2.01316C133.302 6.21226 144.558 25.1134 144.766 50.6221C144.967 75.1332 134.912 98.7316 120.45 111.237C120.45 111.153 120.442 111.066 120.441 110.98C134.253 98.3454 142.983 74.7122 141.38 50.1522C139.507 21.4665 124.157 1.04128 105.492 0.225144C98.4977 -0.025875 96.0725 -0.113421 91.4331 0.262465C111.334 -0.143028 130.143 20.6337 135.171 50.1806C139.298 74.429 132.983 97.7725 120.423 110.511C120.415 110.438 120.408 110.363 120.394 110.29C132.253 97.5743 137.274 74.5668 131.81 50.698C121.872 12.2303 97.1487 -2.7755 77.8614 2.2835C73.8965 3.34937 68.6393 4.89925 64.7697 6.27406L62.5569 7.16614C63.742 6.69098 64.9573 6.29492 66.1948 5.98056C88.3192 0.36674 114.983 21.2412 125.752 52.6058C133.534 75.2748 130.882 97.2177 120.461 109.761C120.461 109.703 120.461 109.645 120.47 109.588C120.478 109.46 120.478 109.331 120.47 109.202C130.358 96.6577 131.303 76.9817 122.608 54.1467C105.028 14.3994 73.0083 1.11079 53.4224 11.5841L47.8394 14.931C45.4052 16.6585 42.1291 18.9293 39.7914 20.7868C64.5432 4.58902 100.523 27.2786 117.333 57.7716C130.121 83.0873 126.473 98.783 121.452 107.316C127.76 95.7463 125.829 78.081 114.723 60.1531C97.8785 32.931 66.2836 15.424 44.154 21.0443C39.8094 22.1475 36.1522 24.0591 33.2121 26.6272C26.7088 33.3648 26.4539 33.6274 23.0259 38.0982L21.7785 39.7845C24.8332 35.7115 29.4674 32.689 35.636 31.1288C57.7605 25.515 91.2671 40.7577 110.475 65.1774C123.331 81.5258 126.52 97.8317 120.59 108.516C120.59 108.492 120.596 108.467 120.599 108.444C120.602 108.421 120.612 108.389 120.618 108.36C125.749 98.2128 121.797 83.1851 108.443 68.2642C88.1132 45.5502 53.6966 31.6888 31.5721 37.3039C24.8692 39.0044 20.0625 42.2985 17.1855 46.701L14.5749 51.2207C13.2966 53.7849 11.5498 57.1859 10.3822 59.803C12.8152 55.1816 17.766 51.6262 25.2348 49.7313C47.3606 44.1162 83.1946 55.1971 105.274 74.4805C119.198 86.6414 124.326 99.1602 120.666 108.158C120.666 108.147 120.666 108.136 120.666 108.126C120.653 108.165 120.639 108.205 120.625 108.243C120.625 108.243 120.625 108.256 120.616 108.264C121.201 102.384 114.614 95.494 101.095 89.3589C76.7105 78.2883 39.0061 73.8729 16.8817 79.488C7.65318 81.8296 2.59288 85.5472 1.5991 89.8892C1.10607 93.6919 0.512649 98.7715 0.210138 102.597C0.168087 103.316 0.131187 104.036 0.0994343 104.76C2.94947 90.1879 64.7015 87.5 100.342 97.1495ZM123.27 121.085L123.371 121.186C123.242 121.128 123.104 121.07 122.97 121.014L122.944 120.996C122.944 120.983 122.944 120.971 122.944 120.958C123.053 120.999 123.159 121.043 123.27 121.085ZM119.241 111.512L119.343 111.564C119.214 111.683 119.085 111.797 118.956 111.915C119.062 111.781 119.151 111.647 119.241 111.512ZM117.997 113.215L117.869 113.208C117.942 113.132 118.013 113.056 118.084 112.979C118.39 112.738 118.693 112.49 118.994 112.239C118.852 112.427 118.699 112.612 118.538 112.798C118.358 112.937 118.179 113.078 117.997 113.215ZM118.094 117.836L117.855 117.844L117.911 117.823L118.094 117.836ZM117.476 113.192H117.355C117.579 113.002 117.799 112.805 118.019 112.612C117.845 112.807 117.664 113 117.476 113.192ZM118.98 111.389L118.913 111.483C118.695 111.71 118.476 111.931 118.254 112.15C118.471 111.893 118.68 111.618 118.878 111.346L118.98 111.389ZM118.2 111.939C118.044 112.115 117.883 112.287 117.685 112.49C117.942 112.22 118.194 111.943 118.439 111.661C118.39 111.721 118.341 111.779 118.292 111.836C118.366 111.75 118.44 111.665 118.511 111.579C118.582 111.492 118.676 111.391 118.756 111.295H118.77C118.262 111.957 117.712 112.584 117.122 113.174H117.051C117.452 112.781 117.834 112.368 118.2 111.942V111.939ZM116.311 118.409C116.696 118.419 117.082 118.434 117.47 118.453C117.824 118.508 118.167 118.574 118.499 118.648C117.923 118.597 117.35 118.558 116.78 118.527C116.585 118.499 116.393 118.475 116.194 118.453L116.311 118.409ZM120.06 119.104C120.293 119.189 120.517 119.282 120.735 119.379C120.244 119.28 119.753 119.189 119.263 119.108C118.998 119.02 118.731 118.943 118.463 118.872C118.994 118.941 119.525 119.02 120.06 119.107V119.104ZM115.272 118.8L115.23 118.794L115.328 118.76C115.729 118.809 116.124 118.871 116.516 118.942C116.101 118.888 115.687 118.841 115.272 118.803V118.8ZM115.68 118.686L115.573 118.673L115.72 118.621C115.806 118.621 115.894 118.629 115.978 118.635C116.355 118.684 116.725 118.741 117.087 118.809C116.616 118.76 116.149 118.722 115.68 118.688V118.686ZM118.717 119.315C118.379 119.215 118.036 119.124 117.687 119.042C118.09 119.105 118.494 119.171 118.899 119.251C119.208 119.344 119.512 119.446 119.81 119.557C119.442 119.472 119.08 119.392 118.717 119.318V119.315ZM121.343 119.959L121.214 119.921C120.994 119.807 120.773 119.703 120.549 119.602C120.846 119.673 121.144 119.746 121.441 119.825C121.41 119.879 121.379 119.923 121.343 119.968V119.959ZM121.669 118.823C121.755 118.879 121.84 118.937 121.926 118.997C121.918 119.019 121.909 119.041 121.9 119.063C121.634 119.022 121.368 118.98 121.101 118.943C120.909 118.851 120.707 118.765 120.495 118.686C120.881 118.736 121.274 118.782 121.669 118.832V118.823ZM119.988 118.131C120.236 118.194 120.48 118.27 120.72 118.359C120.141 118.321 119.561 118.289 118.992 118.267C118.659 118.199 118.309 118.143 117.942 118.097C118.617 118.104 119.299 118.118 119.988 118.14V118.131ZM119.159 113.316L119.457 113.128C119.398 113.197 119.336 113.266 119.272 113.334L119.159 113.316ZM120.044 112.287C119.687 112.544 119.33 112.796 118.972 113.042C119.115 112.876 119.242 112.713 119.358 112.552C119.589 112.382 119.818 112.208 120.047 112.037L120.133 112.119C120.105 112.178 120.075 112.235 120.044 112.292V112.287ZM120.405 109.419C120.366 109.56 120.324 109.702 120.276 109.843C120.254 109.783 120.233 109.722 120.208 109.663C120.242 109.576 120.276 109.487 120.308 109.406L120.384 109.309C120.39 109.346 120.398 109.385 120.405 109.424V109.419ZM120.321 108.978L120.169 109.236C120.218 109.139 120.266 109.041 120.312 108.945C120.315 108.958 120.317 108.971 120.321 108.983V108.978Z" fill="url(#paint1_linear_124_2)"/>
</g>
<defs>
<linearGradient id="paint0_linear_124_2" x1="121.402" y1="81.7652" x2="3.19241" y2="81.7652" gradientUnits="userSpaceOnUse">
<stop offset="0.0001" stop-color="#ADAAF8"/>
<stop offset="1" stop-color="white"/>
</linearGradient>
<linearGradient id="paint1_linear_124_2" x1="210.302" y1="119.499" x2="0.000320988" y2="119.499" gradientUnits="userSpaceOnUse">
<stop stop-color="#6863F2"/>
<stop offset="1" stop-color="white"/>
</linearGradient>
<clipPath id="clip0_124_2">
<rect width="210.301" height="239" fill="white" transform="matrix(-1 0 0 -1 210.302 239)"/>
</clipPath>
</defs>
</svg>
